<svg width="44" height="40" viewBox="0 0 44 40" fill="none" xmlns="http://www.w3.org/2000/svg">
<rect opacity="0.1" x="43.9102" width="40" height="3.04957" rx="1.52478" transform="rotate(90 43.9102 0)" fill="white"/>
<path opacity="0.75" fill-rule="evenodd" clip-rule="evenodd" d="M12.4001 19.7523L2.52551 29.1787L2.52551 33.7565L7.179 33.7565L7.179 30.7046L10.191 30.7046L10.191 27.6527L13.3836 27.6527L16.772 24.0531L12.4001 19.7523Z" fill="#36C8EE"/>
<path fill-rule="evenodd" clip-rule="evenodd" d="M26.1474 23.4221C22.5128 26.9977 16.62 26.9977 12.9854 23.4221C9.35079 19.8466 9.35079 14.0496 12.9854 10.474C16.62 6.89853 22.5128 6.89853 26.1474 10.474C29.782 14.0496 29.782 19.8466 26.1474 23.4221ZM22.9747 17.2476C22.0661 18.1415 20.5929 18.1415 19.6842 17.2476C18.7756 16.3537 18.7756 14.9045 19.6842 14.0106C20.5929 13.1167 22.0661 13.1167 22.9747 14.0106C23.8834 14.9045 23.8834 16.3537 22.9747 17.2476Z" fill="#757B8C"/>
</svg>
