<svg width="900" height="1250" viewBox="0 0 900 1250" fill="none" xmlns="http://www.w3.org/2000/svg">
<g clip-path="url(#clip0_101_1180)">
<rect width="900" height="1250" rx="30" fill="#141518"/>
<path fill-rule="evenodd" clip-rule="evenodd" d="M-426.504 1245.82L-399.444 1237.76C-372.384 1229.71 -317.035 1213.59 -262.915 1197.47C-207.565 1181.35 -153.445 1165.24 -98.0957 1153.15C-43.976 1141.06 11.3737 1133 65.4934 1133C119.613 1133 174.963 1141.06 229.083 1161.21C284.432 1181.35 338.552 1213.59 393.902 1221.65C448.021 1229.71 503.371 1213.59 557.491 1205.53C611.61 1197.47 666.96 1197.47 721.08 1201.5C776.43 1205.53 830.549 1213.59 885.899 1217.62C940.019 1221.65 995.368 1221.65 1022.43 1221.65H1049.49V1270H1022.43C995.368 1270 940.019 1270 885.899 1270C830.549 1270 776.43 1270 721.08 1270C666.96 1270 611.61 1270 557.491 1270C503.371 1270 448.021 1270 393.902 1270C338.552 1270 284.432 1270 229.083 1270C174.963 1270 119.613 1270 65.4934 1270C11.3737 1270 -43.976 1270 -98.0957 1270C-153.445 1270 -207.565 1270 -262.915 1270C-317.035 1270 -372.384 1270 -399.444 1270H-426.504V1245.82Z" fill="#1D1F25" fill-opacity="0.5"/>
<path fill-rule="evenodd" clip-rule="evenodd" d="M-457 1240.58L-414.705 1230.78C-371.128 1220.97 -286.538 1201.36 -200.667 1167.04C-114.795 1132.71 -30.205 1083.68 55.6666 1083.68C141.538 1083.68 226.128 1132.71 312 1137.62C397.872 1142.52 482.462 1103.3 568.333 1073.88C654.205 1044.46 738.795 1024.85 824.667 1029.75C910.538 1034.65 995.128 1064.07 1038.7 1078.78L1081 1093.49V1270H1038.7C995.128 1270 910.538 1270 824.667 1270C738.795 1270 654.205 1270 568.333 1270C482.462 1270 397.872 1270 312 1270C226.128 1270 141.538 1270 55.6666 1270C-30.205 1270 -114.795 1270 -200.667 1270C-286.538 1270 -371.128 1270 -414.705 1270H-457V1240.58Z" fill="#1D1F25" fill-opacity="0.5"/>
<path fill-rule="evenodd" clip-rule="evenodd" d="M-426.504 1033.7C-392.064 1089.3 -321.339 1096.25 -251.23 1110.15C-179.89 1124.05 -74.7258 1061.5 -4.61618 1033.7C65.4935 1005.9 135.603 1033.7 205.713 1068.45C275.822 1103.2 347.162 1144.9 417.272 1158.8C487.381 1172.7 557.491 1158.8 627.6 1110.15C697.71 1061.5 767.82 978.095 839.159 964.194C909.269 950.294 979.379 1005.9 1013.82 1033.7L1049.49 1061.5V1270H1013.82C979.379 1270 909.269 1270 839.159 1270C767.82 1270 697.71 1270 627.6 1270C557.491 1270 487.381 1270 417.272 1270C347.162 1270 275.822 1270 205.713 1270C135.603 1270 65.4935 1270 -4.61618 1270C-74.7258 1270 -144.835 1270 -216.175 1270C-286.285 1270 -356.394 1270 -390.834 1270H-426.504V1033.7Z" fill="#1D1F25" fill-opacity="0.5"/>
<path fill-rule="evenodd" clip-rule="evenodd" d="M-426.504 1058.36L-390.834 1079.52C-356.394 1100.68 -286.285 1143.01 -216.175 1128.9C-144.835 1114.79 -74.7258 1044.25 -4.61618 1044.25C65.4934 1044.25 135.603 1114.79 205.713 1100.68C275.822 1086.58 347.162 987.808 417.272 966.644C487.381 945.479 557.491 1001.92 627.6 1030.14C697.71 1058.36 767.82 1058.36 839.159 1079.52C909.269 1100.68 979.379 1143.01 1013.82 1164.18L1049.49 1185.34V1270H1013.82C979.379 1270 909.269 1270 839.159 1270C767.82 1270 697.71 1270 627.6 1270C557.491 1270 487.381 1270 417.272 1270C347.162 1270 275.822 1270 205.713 1270C135.603 1270 65.4934 1270 -4.61618 1270C-74.7258 1270 -144.835 1270 -216.175 1270C-286.285 1270 -356.394 1270 -390.834 1270H-426.504V1058.36Z" fill="#1D1F25" fill-opacity="0.5"/>
</g>
<defs>
<clipPath id="clip0_101_1180">
<rect width="900" height="1250" rx="30" fill="white"/>
</clipPath>
</defs>
</svg>
