<svg width="391" height="85" viewBox="0 0 391 85" fill="none" xmlns="http://www.w3.org/2000/svg">
<path d="M149.706 62.7827C159.581 62.7827 167.637 54.8577 167.637 45.1431C167.637 35.4286 159.581 27.5036 149.706 27.5036C139.766 27.5036 131.775 35.4286 131.775 45.1431V73.2641H139.571V57.6058C141.65 60.6736 145.484 62.7827 149.706 62.7827ZM149.706 35.173C155.294 35.173 159.841 39.6468 159.841 45.1431C159.841 50.6395 155.294 55.1133 149.706 55.1133C144.054 55.1133 139.571 50.6395 139.571 45.1431C139.571 39.6468 144.054 35.173 149.706 35.173Z" fill="#1D1F25"/>
<path d="M189.772 61.2488V53.3877C186.199 53.3877 184.38 50.5756 184.38 46.677V14.5935H176.584V46.8048C176.584 55.1772 181.716 61.2488 189.772 61.2488Z" fill="#1D1F25"/>
<path d="M214.799 61.7601C224.544 61.7601 231.69 54.9855 231.69 44.8875V27.3119H223.894V44.8875C223.894 50.6395 220.256 54.0907 214.799 54.0907C209.341 54.0907 205.703 50.6395 205.703 44.8875V27.3119H197.907V44.8875C197.907 54.9855 205.054 61.7601 214.799 61.7601Z" fill="#1D1F25"/>
<path d="M241.659 61.2488H249.455V43.6732C249.455 37.8572 253.093 34.4699 258.551 34.4699C264.008 34.4699 267.646 37.7933 267.646 43.6732V61.2488H275.442V43.6732C275.442 33.5752 268.231 26.8006 258.551 26.8006C248.806 26.8006 241.659 33.5752 241.659 43.6732V61.2488Z" fill="#1D1F25"/>
<path d="M301.572 62.2714C307.549 62.2714 311.837 59.7788 314.761 55.6885C316.71 60.5458 320.218 61.2488 323.596 61.2488V53.3238C321.972 53.3238 319.568 51.6621 319.568 47.38V16.5108H311.772V32.1691C309.628 29.1014 305.86 26.9923 301.572 26.9923C291.697 26.9923 283.641 34.9173 283.641 44.6318C283.641 54.4103 291.697 62.2714 301.572 62.2714ZM301.572 54.602C295.985 54.602 291.437 50.1921 291.437 44.6318C291.437 39.1355 295.985 34.6617 301.572 34.6617C307.224 34.6617 311.772 39.1355 311.772 44.6318C311.772 50.1921 307.224 54.602 301.572 54.602Z" fill="#1D1F25"/>
<path d="M346.795 61.8879C353.031 61.8879 358.619 60.2901 362.127 56.4554L356.15 51.9177C354.851 53.8351 350.108 55.1133 347.574 55.0494C342.377 55.0494 338.219 51.3425 337.829 47.4439H362.192C365.245 34.8534 357.254 26.2893 345.95 26.2893C335.555 26.2254 329.318 34.7256 329.318 44.0566C329.318 52.8125 336.27 61.8879 346.795 61.8879ZM337.764 40.7972C337.764 37.2181 340.688 33.0639 346.21 33.0639C352.837 33.0639 355.045 37.8572 354.591 40.7972H337.764Z" fill="#1D1F25"/>
<path d="M372.318 61.2488H380.114V42.6506C380.114 37.3459 385.312 34.1504 390.769 34.9812V27.3119C386.351 27.0562 381.479 28.2066 379.724 31.3383V27.3119H372.318V61.2488Z" fill="#1D1F25"/>
<g clip-path="url(#clip0_101_1197)">
<path d="M102.759 56.9358V62.0271C102.759 62.2766 102.759 62.5252 102.759 62.7728C102.415 74.7224 92.1864 84.1412 79.9496 84.1412H32.1303C19.8966 84.1412 9.66447 74.7224 9.32422 62.7728C9.32422 62.5242 9.32422 62.2757 9.32422 62.0271V56.9358H44.8821V62.0271C44.8821 64.1235 48.6402 64.7674 54.0076 64.7674C54.6667 64.7674 55.3503 64.7674 56.0522 64.7404C59.8502 64.6446 64.2397 64.3092 68.6017 63.9618C68.663 63.3239 68.6967 62.677 68.6967 62.0271V56.9358H102.759Z" fill="url(#paint0_linear_101_1197)"/>
<path d="M72.5898 84.1562H79.9466C92.1804 84.1562 102.412 74.7373 102.753 62.7878C102.753 62.5392 102.753 62.2906 102.753 62.042V58.0169L95.3959 56.9358V62.0271C95.3959 62.2756 95.3959 62.5242 95.3959 62.7728C95.0557 74.7313 84.8236 84.1562 72.5898 84.1562Z" fill="url(#paint1_linear_101_1197)"/>
<path d="M47.0652 59.7512C47.0652 58.1539 46.4157 56.622 45.2597 55.4925C44.1036 54.363 42.5357 53.7285 40.9008 53.7285H25.3289V47.2925C26.7616 47.2917 28.1354 46.7351 29.1482 45.745C30.1611 44.7549 30.73 43.4124 30.73 42.0126V40.8745H6.56595C5.70344 40.8745 4.84938 41.0405 4.05256 41.3631C3.25575 41.6857 2.53178 42.1585 1.92204 42.7545C1.31229 43.3505 0.828714 44.058 0.498924 44.8367C0.169134 45.6153 -0.000401951 46.4498 7.15597e-07 47.2925H5.62796V53.7285H7.15597e-07C7.15597e-07 55.4299 0.691769 57.0616 1.92312 58.2646C3.15448 59.4677 4.82455 60.1435 6.56595 60.1435H40.4992C40.4988 60.9343 40.6579 61.7174 40.9674 62.4481C41.2768 63.1788 41.7306 63.8427 42.3028 64.402C42.8749 64.9613 43.5543 65.405 44.302 65.7077C45.0497 66.0104 45.8512 66.1662 46.6606 66.1662H56.0344V59.7512H47.0652ZM18.7599 53.7285H12.1939V47.2925H18.7599V53.7285Z" fill="#DCE1EB"/>
<path d="M65.0024 59.7507H56.0332V66.1657H65.407C66.2165 66.1657 67.0181 66.0099 67.766 65.7073C68.5139 65.4046 69.1935 64.961 69.7659 64.4017C70.3383 63.8425 70.7924 63.1785 71.1022 62.4478C71.412 61.7171 71.5714 60.934 71.5714 60.143H105.502C107.243 60.143 108.913 59.4672 110.144 58.2641C111.376 57.0611 112.068 55.4294 112.068 53.728H71.1668C69.5319 53.728 67.9639 54.3626 66.8079 55.492C65.6518 56.6215 65.0024 58.1534 65.0024 59.7507Z" fill="#CDD2E0"/>
<path d="M61.1103 0L50.9609 0V59.7507H61.1103V0Z" fill="#CDD2E0"/>
<path d="M61.1094 9.91626H56.0332V59.7509H61.1094V9.91626Z" fill="#DCE1EB"/>
<path d="M61.1094 0L56.0332 0V9.91602H61.1094V0Z" fill="#DCE1EB"/>
<path d="M101.122 20.6107C101.107 26.0726 98.8798 31.3068 94.9267 35.169C90.9737 39.0311 85.6164 41.2072 80.0259 41.2214H61.1097V31.3054H79.8788C82.7819 31.3054 85.5662 30.1786 87.619 28.173C89.6719 26.1674 90.8251 23.4471 90.8251 20.6107C90.8251 17.7743 89.6719 15.0541 87.619 13.0484C85.5662 11.0428 82.7819 9.91602 79.8788 9.91602L52.5636 9.91602C48.9452 9.91613 45.3882 9.00336 42.2369 7.26613C39.0856 5.52889 36.4468 3.02606 34.5762 0L80.0259 0C85.6164 0.01423 90.9737 2.19028 94.9267 6.05246C98.8798 9.91463 101.107 15.1488 101.122 20.6107Z" fill="url(#paint2_linear_101_1197)"/>
</g>
<defs>
<linearGradient id="paint0_linear_101_1197" x1="9.30889" y1="70.5445" x2="102.759" y2="70.5445" gradientUnits="userSpaceOnUse">
<stop stop-color="#9B9DAC"/>
<stop offset="1" stop-color="#7A8295"/>
</linearGradient>
<linearGradient id="paint1_linear_101_1197" x1="5286.98" y1="6468.7" x2="2318.35" y2="6468.7" gradientUnits="userSpaceOnUse">
<stop stop-color="#9B9DAC"/>
<stop offset="1" stop-color="#7A8295"/>
</linearGradient>
<linearGradient id="paint2_linear_101_1197" x1="93.108" y1="38.8928" x2="35.4487" y2="-1.30685" gradientUnits="userSpaceOnUse">
<stop stop-color="#00ACEE"/>
<stop offset="1" stop-color="#F048B4"/>
</linearGradient>
<clipPath id="clip0_101_1197">
<rect width="112.069" height="84.1499" fill="white"/>
</clipPath>
</defs>
</svg>
