<svg width="50" height="50" viewBox="0 0 50 50" fill="none" xmlns="http://www.w3.org/2000/svg">
<path opacity="0.3" d="M38.7969 20.3125H39.0625C41.6513 20.3125 43.75 22.4112 43.75 25C43.75 27.5888 41.6513 29.6875 39.0625 29.6875L38.9281 29.6875C38.5233 29.6891 38.1581 29.9309 37.9987 30.303C37.8243 30.6982 37.9048 31.1418 38.183 31.4264L38.2761 31.5195C39.1563 32.3988 39.6509 33.5918 39.6509 34.8359C39.6509 36.08 39.1563 37.2731 38.2773 38.1511C37.3981 39.0313 36.205 39.5259 34.9609 39.5259C33.7168 39.5259 32.5238 39.0313 31.6451 38.1517L31.5636 38.0701C31.2668 37.7798 30.8232 37.6993 30.428 37.8737C30.0559 38.0331 29.8141 38.3983 29.8125 38.7969V39.0625C29.8125 41.6513 27.7138 43.75 25.125 43.75C22.5362 43.75 20.4375 41.6513 20.4375 39.0625C20.4282 38.5415 20.1646 38.1729 19.6816 37.992C19.3018 37.8243 18.8582 37.9048 18.5736 38.183L18.4805 38.2761C17.6012 39.1563 16.4082 39.6509 15.1641 39.6509C13.92 39.6509 12.7269 39.1563 11.8489 38.2773C10.9687 37.3981 10.4741 36.205 10.4741 34.9609C10.4741 33.7168 10.9687 32.5238 11.8483 31.6451L11.9299 31.5636C12.2202 31.2668 12.3007 30.8232 12.1263 30.428C11.9669 30.0559 11.6017 29.8141 11.2031 29.8125H10.9375C8.34867 29.8125 6.25 27.7138 6.25 25.125C6.25 22.5362 8.34867 20.4375 10.9375 20.4375C11.4585 20.4282 11.8271 20.1646 12.008 19.6816C12.1757 19.3018 12.0952 18.8582 11.817 18.5736L11.7239 18.4805C10.8437 17.6012 10.3491 16.4082 10.3491 15.1641C10.3491 13.92 10.8437 12.7269 11.7227 11.8489C12.6019 10.9687 13.795 10.4741 15.0391 10.4741C16.2832 10.4741 17.4762 10.9687 18.3549 11.8483L18.4364 11.9299C18.7332 12.2202 19.1768 12.3007 19.5566 12.133L19.7809 12.0857C20.105 11.9102 20.311 11.5709 20.3125 11.2031V10.9375C20.3125 8.34867 22.4112 6.25 25 6.25C27.5888 6.25 29.6875 8.34867 29.6875 10.9375L29.6875 11.0719C29.6891 11.4767 29.9309 11.8419 30.3184 12.008C30.6982 12.1757 31.1418 12.0952 31.4264 11.817L31.5195 11.7239C32.3988 10.8437 33.5918 10.3491 34.8359 10.3491C36.08 10.3491 37.2731 10.8437 38.1511 11.7227C39.0313 12.6019 39.5259 13.795 39.5259 15.0391C39.5259 16.2832 39.0313 17.4762 38.1517 18.3549L38.0701 18.4364C37.7798 18.7332 37.6993 19.1768 37.867 19.5566L37.9143 19.7809C38.0898 20.105 38.4291 20.311 38.7969 20.3125Z" fill="#31343B"/>
<path fill-rule="evenodd" clip-rule="evenodd" d="M25 31.25C28.4518 31.25 31.25 28.4518 31.25 25C31.25 21.5482 28.4518 18.75 25 18.75C21.5482 18.75 18.75 21.5482 18.75 25C18.75 28.4518 21.5482 31.25 25 31.25Z" fill="#31343B"/>
</svg>
