<svg width="50" height="50" viewBox="0 0 50 50" fill="none" xmlns="http://www.w3.org/2000/svg">
<path opacity="0.3" d="M29.1683 14.5835C29.1683 15.7341 30.1007 16.6668 31.2508 16.6668C32.4009 16.6668 33.3332 15.7341 33.3332 14.5835V12.5002C33.3332 7.89779 29.6039 4.16682 25.0035 4.16682H12.5107C7.91033 4.16682 4.18099 7.89779 4.18099 12.5002L4.18099 37.5002C4.18099 42.1025 7.91033 45.8335 12.5107 45.8335H25.0179C29.6183 45.8335 33.3477 42.1025 33.3477 37.5002V35.4168C33.3477 34.2662 32.4153 33.3335 31.2652 33.3335C30.1151 33.3335 29.1828 34.2662 29.1828 35.4168V37.5002C29.1828 39.8013 27.3181 41.6668 25.0179 41.6668H12.5107C10.2105 41.6668 8.34585 39.8013 8.34585 37.5002L8.34585 12.5002C8.34585 10.199 10.2105 8.33349 12.5107 8.33349H25.0035C27.3037 8.33349 29.1683 10.199 29.1683 12.5002V14.5835Z" fill="#757B8C"/>
<rect opacity="0.3" x="41.666" y="22.9165" width="4.16667" height="25" rx="1" transform="rotate(90 41.666 22.9165)" fill="#757B8C"/>
<path d="M36.0262 20.2233C35.2126 19.4097 35.2126 18.0906 36.0262 17.277C36.8398 16.4634 38.1589 16.4634 38.9725 17.277L45.2225 23.527C46.0361 24.3406 46.0361 25.6597 45.2225 26.4733L38.9725 32.7233C38.1589 33.5369 36.8398 33.5369 36.0262 32.7233C35.2126 31.9097 35.2126 30.5906 36.0262 29.777L40.8031 25.0002L36.0262 20.2233Z" fill="#757B8C"/>
</svg>
