<svg width="240" height="52" viewBox="0 0 240 52" fill="none" xmlns="http://www.w3.org/2000/svg">
<path d="M91.6798 38.4467C97.7271 38.4467 102.66 33.5935 102.66 27.6445C102.66 21.6955 97.7271 16.8424 91.6798 16.8424C85.5928 16.8424 80.6992 21.6955 80.6992 27.6445V44.8653H85.4734V35.2765C86.7465 37.1551 89.0938 38.4467 91.6798 38.4467ZM91.6798 21.539C95.1013 21.539 97.8863 24.2787 97.8863 27.6445C97.8863 31.0104 95.1013 33.7501 91.6798 33.7501C88.2185 33.7501 85.4734 31.0104 85.4734 27.6445C85.4734 24.2787 88.2185 21.539 91.6798 21.539Z" fill="#31343B"/>
<path d="M116.215 37.5073V32.6934C114.027 32.6934 112.913 30.9713 112.913 28.5839V8.93652H108.139V28.6621C108.139 33.7892 111.282 37.5073 116.215 37.5073Z" fill="#31343B"/>
<path d="M131.541 37.8205C137.509 37.8205 141.885 33.6718 141.885 27.488V16.725H137.111V27.488C137.111 31.0104 134.883 33.1239 131.541 33.1239C128.199 33.1239 125.971 31.0104 125.971 27.488V16.725H121.197V27.488C121.197 33.6718 125.573 37.8205 131.541 37.8205Z" fill="#31343B"/>
<path d="M147.99 37.5073H152.764V26.7444C152.764 23.1828 154.992 21.1085 158.334 21.1085C161.676 21.1085 163.904 23.1437 163.904 26.7444V37.5073H168.678V26.7444C168.678 20.5605 164.262 16.4119 158.334 16.4119C152.366 16.4119 147.99 20.5605 147.99 26.7444V37.5073Z" fill="#31343B"/>
<path d="M184.68 38.1336C188.34 38.1336 190.966 36.6072 192.756 34.1023C193.949 37.0768 196.098 37.5073 198.167 37.5073V32.6542C197.172 32.6542 195.7 31.6366 195.7 29.0144V10.1107H190.926V19.6995C189.613 17.8209 187.305 16.5293 184.68 16.5293C178.632 16.5293 173.699 21.3824 173.699 27.3314C173.699 33.3196 178.632 38.1336 184.68 38.1336ZM184.68 33.437C181.258 33.437 178.473 30.7365 178.473 27.3314C178.473 23.9656 181.258 21.2259 184.68 21.2259C188.141 21.2259 190.926 23.9656 190.926 27.3314C190.926 30.7365 188.141 33.437 184.68 33.437Z" fill="#31343B"/>
<path d="M212.373 37.8987C216.192 37.8987 219.614 36.9203 221.762 34.572L218.102 31.7932C217.306 32.9673 214.402 33.7501 212.85 33.7109C209.668 33.7109 207.121 31.4409 206.883 29.0535H221.802C223.672 21.3433 218.778 16.0988 211.856 16.0988C205.49 16.0597 201.671 21.265 201.671 26.9792C201.671 32.3411 205.928 37.8987 212.373 37.8987ZM206.843 24.9831C206.843 22.7914 208.633 20.2474 212.015 20.2474C216.073 20.2474 217.426 23.1828 217.147 24.9831H206.843Z" fill="#31343B"/>
<path d="M228.003 37.5073H232.777V26.1182C232.777 22.8697 235.96 20.9128 239.302 21.4216V16.725C236.597 16.5685 233.613 17.2729 232.539 19.1907V16.725H228.003V37.5073Z" fill="#31343B"/>
<g clip-path="url(#clip0_111_964)">
<path d="M62.9285 34.8665V37.9843C62.9285 38.1371 62.9285 38.2893 62.9285 38.4409C62.7182 45.7586 56.4542 51.5266 48.9606 51.5266H19.677C12.1852 51.5266 5.9193 45.7586 5.71094 38.4409C5.71094 38.2887 5.71094 38.1365 5.71094 37.9843V34.8665H27.4859V37.9843C27.4859 39.2681 29.7873 39.6624 33.0742 39.6624C33.4778 39.6624 33.8964 39.6624 34.3263 39.6459C36.6521 39.5872 39.3402 39.3818 42.0114 39.169C42.0489 38.7784 42.0695 38.3822 42.0695 37.9843V34.8665H62.9285Z" fill="url(#paint0_linear_111_964)"/>
<path d="M44.4531 51.5357H48.9583C56.45 51.5357 62.716 45.7678 62.9243 38.4501C62.9243 38.2979 62.9243 38.1457 62.9243 37.9934V35.5285L58.4192 34.8665V37.9843C58.4192 38.1365 58.4192 38.2887 58.4192 38.4409C58.2108 45.7641 51.9448 51.5357 44.4531 51.5357Z" fill="url(#paint1_linear_111_964)"/>
<path d="M28.8218 36.5905C28.8218 35.6123 28.4241 34.6742 27.7162 33.9825C27.0082 33.2909 26.0481 32.9023 25.0469 32.9023H15.5109V28.961C16.3883 28.9605 17.2296 28.6197 17.8498 28.0134C18.4701 27.407 18.8185 26.5849 18.8185 25.7277V25.0308H4.02087C3.49268 25.0308 2.96967 25.1324 2.48171 25.33C1.99376 25.5275 1.55042 25.817 1.17702 26.182C0.803625 26.547 0.507489 26.9803 0.305532 27.4571C0.103575 27.934 -0.000246147 28.445 4.38218e-07 28.961H3.44646V32.9023H4.38218e-07C4.38218e-07 33.9442 0.423626 34.9434 1.17768 35.6801C1.93174 36.4169 2.95447 36.8307 4.02087 36.8307H24.801C24.8007 37.315 24.8981 37.7945 25.0876 38.242C25.2771 38.6895 25.555 39.0961 25.9054 39.4386C26.2558 39.7811 26.6718 40.0528 27.1297 40.2381C27.5876 40.4235 28.0784 40.5189 28.5741 40.5189H34.3144V36.5905H28.8218ZM11.4882 32.9023H7.46732V28.961H11.4882V32.9023Z" fill="#DCE1EB"/>
<path d="M39.807 36.59H34.3145V40.5185H40.0548C40.5505 40.5185 41.0414 40.4231 41.4994 40.2377C41.9574 40.0524 42.3736 39.7807 42.7241 39.4382C43.0746 39.0958 43.3527 38.6892 43.5424 38.2417C43.7321 37.7942 43.8298 37.3146 43.8298 36.8303H64.608C65.6744 36.8303 66.6971 36.4164 67.4512 35.6797C68.2052 34.943 68.6289 33.9437 68.6289 32.9019H43.582C42.5808 32.9019 41.6206 33.2904 40.9127 33.9821C40.2047 34.6738 39.807 35.6119 39.807 36.59Z" fill="#CDD2E0"/>
<path d="M37.4223 0L31.207 0V36.5902H37.4223V0Z" fill="#CDD2E0"/>
<path d="M37.423 6.07275H34.3145V36.5906H37.423V6.07275Z" fill="#DCE1EB"/>
<path d="M37.423 0L34.3145 0V6.07239H37.423V0Z" fill="#DCE1EB"/>
<path d="M61.925 12.6216C61.9161 15.9664 60.5522 19.1717 58.1314 21.5368C55.7106 23.9019 52.4299 25.2345 49.0064 25.2432H37.4225V19.1708H48.9163C50.6941 19.1708 52.3992 18.4808 53.6563 17.2526C54.9134 16.0244 55.6196 14.3586 55.6196 12.6216C55.6196 10.8847 54.9134 9.21883 53.6563 7.99061C52.3992 6.76239 50.6941 6.07239 48.9163 6.07239L32.189 6.07239C29.9732 6.07245 27.7949 5.51349 25.8651 4.44964C23.9353 3.38579 22.3194 1.8531 21.1738 0L49.0064 0C52.4299 0.00871419 55.7106 1.34129 58.1314 3.70641C60.5522 6.07154 61.9161 9.27683 61.925 12.6216Z" fill="url(#paint2_linear_111_964)"/>
</g>
<defs>
<linearGradient id="paint0_linear_111_964" x1="5.70155" y1="43.2002" x2="62.9285" y2="43.2002" gradientUnits="userSpaceOnUse">
<stop stop-color="#9B9DAC"/>
<stop offset="1" stop-color="#7A8295"/>
</linearGradient>
<linearGradient id="paint1_linear_111_964" x1="3237.65" y1="3961.31" x2="1419.71" y2="3961.31" gradientUnits="userSpaceOnUse">
<stop stop-color="#9B9DAC"/>
<stop offset="1" stop-color="#7A8295"/>
</linearGradient>
<linearGradient id="paint2_linear_111_964" x1="57.0176" y1="23.8172" x2="21.7082" y2="-0.800291" gradientUnits="userSpaceOnUse">
<stop stop-color="#00ACEE"/>
<stop offset="1" stop-color="#F048B4"/>
</linearGradient>
<clipPath id="clip0_111_964">
<rect width="68.6288" height="51.5318" fill="white"/>
</clipPath>
</defs>
</svg>
