<svg width="50" height="50" viewBox="0 0 50 50" fill="none" xmlns="http://www.w3.org/2000/svg">
<path fill-rule="evenodd" clip-rule="evenodd" d="M31.25 43.3561C31.25 44.0981 32.2124 44.3895 32.624 43.7721L47.1393 21.9992C47.4716 21.5008 47.1143 20.8332 46.5153 20.8332H35.4167V6.64358C35.4167 5.90153 34.4542 5.61013 34.0426 6.22756L19.5273 28.0005C19.1951 28.4989 19.5524 29.1665 20.1514 29.1665H31.25V43.3561Z" fill="#31343B"/>
<path opacity="0.3" fill-rule="evenodd" clip-rule="evenodd" d="M6.25065 11.9165C6.25065 11.0881 6.92222 10.4165 7.75065 10.4165H21.4173C22.2457 10.4165 22.9173 11.0881 22.9173 11.9165V15.1665C22.9173 15.9949 22.2457 16.6665 21.4173 16.6665H7.75065C6.92222 16.6665 6.25065 15.9949 6.25065 15.1665V11.9165ZM6.25065 36.9165C6.25065 36.0881 6.92222 35.4165 7.75065 35.4165H21.4173C22.2457 35.4165 22.9173 36.0881 22.9173 36.9165V40.1665C22.9173 40.9949 22.2457 41.6665 21.4173 41.6665H7.75065C6.92222 41.6665 6.25065 40.9949 6.25065 40.1665V36.9165ZM3.58398 22.9165C2.75556 22.9165 2.08398 23.5881 2.08398 24.4165V27.6665C2.08398 28.4949 2.75556 29.1665 3.58398 29.1665H15.1673C15.9957 29.1665 16.6673 28.4949 16.6673 27.6665V24.4165C16.6673 23.5881 15.9957 22.9165 15.1673 22.9165H3.58398Z" fill="#31343B"/>
</svg>
